<svg width="84" height="31" viewBox="0 0 84 31" fill="none" xmlns="http://www.w3.org/2000/svg">
<path d="M19 4.72C19.9867 4.72 20.7467 5 21.28 5.56C21.84 6.09333 22.12 6.82667 22.12 7.76C22.12 9.84 20.88 11.7733 18.4 13.56C15.92 15.32 13.0933 16.2 9.92 16.2C8.53333 16.2 7.06667 16 5.52 15.6C4.50667 17.2533 4 19.0533 4 21C4 22.92 4.53333 24.48 5.6 25.68C6.66667 26.8533 8.22667 27.44 10.28 27.44C13.96 27.44 16.3733 25.2933 17.52 21H19.4C19.1067 23.48 17.9333 25.6667 15.88 27.56C13.8533 29.4533 11.1733 30.4 7.84 30.4C6.08 30.4 4.44 29.76 2.92 28.48C1.4 27.1733 0.64 25.2933 0.64 22.84C0.64 20.3867 1.57333 17.7067 3.44 14.8C2.08 14 1 13.0133 0.2 11.84L1.28 10.64C1.46667 10.8267 1.72 11.1067 2.04 11.48C2.65333 12.2 3.48 12.8267 4.52 13.36C6.09333 11.1733 8.37333 9.18667 11.36 7.4C14.3733 5.61333 16.92 4.72 19 4.72ZM9.8 14.6C12.12 14.6 14.16 14.0533 15.92 12.96C17.68 11.8667 18.56 10.5867 18.56 9.12C18.56 8.61333 18.3733 8.21333 18 7.92C17.6533 7.6 17.2 7.44 16.64 7.44C15.0133 7.44 13.2 8.09333 11.2 9.4C9.2 10.68 7.61333 12.2267 6.44 14.04C7.4 14.4133 8.52 14.6 9.8 14.6ZM39.1759 27.08L40.0959 27.84C38.9759 29.7067 37.5226 30.64 35.7359 30.64C34.1893 30.64 33.4159 29.88 33.4159 28.36C33.4159 27.48 33.7893 26.08 34.5359 24.16C35.3093 22.2133 35.6959 20.9333 35.6959 20.32C35.6959 19.5467 35.2026 19.16 34.2159 19.16C33.2293 19.16 31.8826 20.2267 30.1759 22.36C28.4959 24.4667 27.0826 26.92 25.9359 29.72L23.5759 28.88C24.9626 21.92 28.5893 12.6 34.4559 0.919998L36.4159 1.56C33.4559 7.48 31.3359 12.1867 30.0559 15.68C28.7226 19.3067 27.7226 22.3067 27.0559 24.68C29.1093 21.2933 30.8693 18.9467 32.3359 17.64C33.8293 16.3333 35.1226 15.68 36.2159 15.68C38.1893 15.68 39.1759 16.3867 39.1759 17.8C39.1759 18.68 38.6826 20.2533 37.6959 22.52C36.7093 24.7867 36.2159 26.2933 36.2159 27.04C36.2159 27.7867 36.5759 28.16 37.2959 28.16C37.6693 28.16 38.2959 27.8 39.1759 27.08ZM58.2006 25.96L59.1206 26.64C58.7473 27.44 58.054 28.2 57.0406 28.92C56.054 29.64 55.1473 30 54.3206 30C52.7473 30 51.9606 29.1733 51.9606 27.52C51.9606 26.7467 52.1606 25.8267 52.5606 24.76L51.0806 26.28C49.6406 27.7467 48.3873 28.7333 47.3206 29.24C46.2806 29.7467 45.254 30 44.2406 30C43.2273 30 42.454 29.72 41.9206 29.16C41.414 28.5733 41.1606 27.7733 41.1606 26.76C41.1606 24.8933 41.8806 23.0533 43.3206 21.24C44.7606 19.4 46.6006 17.9067 48.8406 16.76C51.0806 15.6133 53.3206 15.0267 55.5606 15L55.6406 16.32L53.9606 16.68C51.534 17.2133 49.3873 18.28 47.5206 19.88C45.6806 21.48 44.7606 23.08 44.7606 24.68C44.7606 26.2533 45.4006 27.04 46.6806 27.04C47.8806 27.04 49.3606 26.2 51.1206 24.52C52.8806 22.84 54.3473 20.8667 55.5206 18.6L57.2006 19.6C55.5473 22.9333 54.7206 25.0533 54.7206 25.96C54.7206 26.3333 54.8406 26.6533 55.0806 26.92C55.3473 27.16 55.6006 27.28 55.8406 27.28C56.1073 27.28 56.2806 27.2667 56.3606 27.24C56.4406 27.2133 56.5206 27.1867 56.6006 27.16C56.6806 27.1067 56.774 27.04 56.8806 26.96C57.014 26.88 57.1206 26.8 57.2006 26.72C57.3073 26.64 57.4673 26.52 57.6806 26.36C57.894 26.2 58.0673 26.0667 58.2006 25.96ZM70.9906 15.84C71.6573 15.84 72.204 16.0667 72.6306 16.52C73.0573 16.9733 73.2706 17.56 73.2706 18.28C73.2706 19.72 72.444 21.24 70.7906 22.84L69.8306 22.08C70.204 21.2533 70.3906 20.6533 70.3906 20.28C70.3906 19.56 69.9906 19.2 69.1906 19.2C68.3906 19.2 67.6306 19.7067 66.9106 20.72C66.1906 21.7333 65.3373 23.3067 64.3506 25.44C63.3906 27.5467 62.6573 29.04 62.1506 29.92L59.8706 28.92C61.3373 25.5867 62.1773 23.6267 62.3906 23.04C63.1106 20.96 63.4706 18.32 63.4706 15.12L65.7106 14.52C65.6306 16.2533 65.5106 17.6 65.3506 18.56C65.1906 19.4933 64.804 21.0267 64.1906 23.16C66.884 18.28 69.1506 15.84 70.9906 15.84ZM82.1694 13.04C80.676 13.04 79.9294 12.44 79.9294 11.24C79.9294 10.5733 80.116 10.0133 80.4894 9.56C80.8627 9.10667 81.3427 8.88 81.9294 8.88C82.516 8.88 82.996 9.05333 83.3694 9.4C83.7427 9.74667 83.9294 10.2 83.9294 10.76C83.9294 11.32 83.7694 11.84 83.4494 12.32C83.1294 12.8 82.7027 13.04 82.1694 13.04ZM81.6494 24.84L82.4494 25.52C81.8094 26.7467 80.956 27.8 79.8894 28.68C78.8494 29.5333 77.9027 29.96 77.0494 29.96C75.556 29.96 74.8094 28.92 74.8094 26.84C74.8094 24.2533 75.876 20.88 78.0094 16.72C78.4894 15.8133 78.7694 15.28 78.8494 15.12L80.5694 16.16C80.0094 17.1733 79.316 18.7867 78.4894 21C77.6894 23.2133 77.2894 24.64 77.2894 25.28C77.2894 25.8933 77.4227 26.3333 77.6894 26.6C77.956 26.8667 78.276 27 78.6494 27C79.3694 27 80.3694 26.28 81.6494 24.84Z" fill="white"/>
</svg>
