<svg width="15" height="161" viewBox="0 0 15 161" fill="none" xmlns="http://www.w3.org/2000/svg">
<path d="M14 160.74H1.04L1.04 155.736C1.04 155.61 1.046 155.469 1.058 155.313C1.064 155.151 1.082 154.989 1.112 154.827C1.214 154.149 1.451 153.576 1.823 153.108C2.189 152.634 2.651 152.277 3.209 152.037C3.767 151.791 4.385 151.668 5.063 151.668C6.041 151.668 6.89 151.926 7.61 152.442C8.33 152.958 8.783 153.696 8.969 154.656L9.077 155.115V159.417H14V160.74ZM14 152.892L8.726 155.448L8.24 154.179L14 151.371V152.892ZM7.817 159.417V155.772C7.817 155.664 7.811 155.538 7.799 155.394C7.787 155.25 7.766 155.109 7.736 154.971C7.64 154.527 7.457 154.164 7.187 153.882C6.917 153.594 6.596 153.381 6.224 153.243C5.852 153.099 5.465 153.027 5.063 153.027C4.661 153.027 4.274 153.099 3.902 153.243C3.524 153.381 3.2 153.594 2.93 153.882C2.66 154.164 2.477 154.527 2.381 154.971C2.351 155.109 2.333 155.25 2.327 155.394C2.315 155.538 2.309 155.664 2.309 155.772L2.309 159.417H7.817ZM14 149.205H1.04V147.882H14V149.205ZM14.27 139.99C14.27 140.902 14.111 141.724 13.793 142.456C13.475 143.188 13.022 143.812 12.434 144.328C11.846 144.838 11.138 145.228 10.31 145.498C9.476 145.768 8.546 145.903 7.52 145.903C6.164 145.903 4.982 145.669 3.974 145.201C2.96 144.727 2.174 144.049 1.616 143.167C1.058 142.285 0.778999 141.226 0.778999 139.99C0.778999 138.61 1.103 137.488 1.751 136.624C2.393 135.754 3.257 135.148 4.343 134.806L4.667 136.138C3.875 136.42 3.242 136.885 2.768 137.533C2.294 138.175 2.057 138.976 2.057 139.936C2.051 140.95 2.279 141.793 2.741 142.465C3.197 143.137 3.839 143.644 4.667 143.986C5.489 144.322 6.44 144.493 7.52 144.499C8.6 144.505 9.551 144.34 10.373 144.004C11.189 143.662 11.831 143.152 12.299 142.474C12.761 141.796 12.995 140.95 13.001 139.936C13.001 139.006 12.821 138.238 12.461 137.632C12.101 137.026 11.585 136.567 10.913 136.255C10.241 135.937 9.446 135.757 8.528 135.715V138.703H7.394V134.329C7.532 134.311 7.679 134.302 7.835 134.302C7.985 134.296 8.093 134.293 8.159 134.293C9.329 134.293 10.376 134.503 11.3 134.923C12.218 135.343 12.944 135.976 13.478 136.822C14.006 137.662 14.27 138.718 14.27 139.99ZM14 132.492H1.04V131.169H6.881L6.881 124.005H1.04L1.04 122.691H14V124.005H8.15L8.15 131.169H14V132.492ZM14 116.723H2.309V121.25H1.04L1.04 110.873H2.309V115.4H14V116.723ZM14.27 104.929C14.27 105.835 14.12 106.651 13.82 107.377C13.514 108.097 13.082 108.694 12.524 109.168C11.966 109.636 11.303 109.942 10.535 110.086L10.31 108.736C11.15 108.52 11.81 108.064 12.29 107.368C12.764 106.672 13.001 105.841 13.001 104.875C13.001 104.239 12.902 103.669 12.704 103.165C12.5 102.661 12.212 102.265 11.84 101.977C11.468 101.689 11.027 101.545 10.517 101.545C10.181 101.545 9.896 101.605 9.662 101.725C9.422 101.845 9.224 102.004 9.068 102.202C8.912 102.4 8.783 102.616 8.681 102.85C8.573 103.084 8.486 103.312 8.42 103.534L7.439 106.819C7.325 107.215 7.181 107.581 7.007 107.917C6.827 108.253 6.614 108.547 6.368 108.799C6.116 109.045 5.822 109.237 5.486 109.375C5.15 109.513 4.766 109.582 4.334 109.582C3.602 109.582 2.969 109.39 2.435 109.006C1.901 108.622 1.49 108.097 1.202 107.431C0.914 106.765 0.773 106.006 0.778999 105.154C0.778999 104.29 0.931999 103.519 1.238 102.841C1.544 102.157 1.982 101.593 2.552 101.149C3.116 100.705 3.785 100.411 4.559 100.267L4.811 101.653C4.247 101.743 3.758 101.95 3.344 102.274C2.93 102.598 2.612 103.012 2.39 103.516C2.162 104.014 2.045 104.563 2.039 105.163C2.039 105.745 2.138 106.264 2.336 106.72C2.528 107.17 2.792 107.527 3.128 107.791C3.464 108.055 3.848 108.187 4.28 108.187C4.718 108.187 5.069 108.067 5.333 107.827C5.597 107.581 5.804 107.281 5.954 106.927C6.104 106.567 6.227 106.219 6.323 105.883L7.07 103.345C7.142 103.081 7.247 102.772 7.385 102.418C7.517 102.058 7.709 101.71 7.961 101.374C8.207 101.032 8.531 100.75 8.933 100.528C9.335 100.306 9.845 100.195 10.463 100.195C11.063 100.195 11.6 100.315 12.074 100.555C12.548 100.789 12.947 101.122 13.271 101.554C13.595 101.98 13.841 102.481 14.009 103.057C14.183 103.627 14.27 104.251 14.27 104.929ZM14.27 93.0907C14.27 94.3807 13.985 95.4697 13.415 96.3577C12.839 97.2457 12.044 97.9177 11.03 98.3737C10.016 98.8297 8.846 99.0577 7.52 99.0577C6.194 99.0577 5.024 98.8297 4.01 98.3737C2.996 97.9177 2.204 97.2457 1.634 96.3577C1.058 95.4697 0.77 94.3807 0.77 93.0907C0.77 91.7947 1.058 90.7057 1.634 89.8237C2.204 88.9357 2.996 88.2637 4.01 87.8077C5.024 87.3457 6.194 87.1147 7.52 87.1147C8.846 87.1147 10.016 87.3457 11.03 87.8077C12.044 88.2637 12.839 88.9357 13.415 89.8237C13.985 90.7057 14.27 91.7947 14.27 93.0907ZM13.001 93.0907C13.001 92.0767 12.77 91.2307 12.308 90.5527C11.846 89.8747 11.204 89.3677 10.382 89.0317C9.554 88.6897 8.6 88.5187 7.52 88.5187C6.44 88.5187 5.489 88.6897 4.667 89.0317C3.845 89.3677 3.203 89.8747 2.741 90.5527C2.279 91.2307 2.045 92.0767 2.039 93.0907C2.039 94.1047 2.27 94.9477 2.732 95.6197C3.194 96.2917 3.839 96.7987 4.667 97.1407C5.489 97.4767 6.44 97.6477 7.52 97.6537C8.6 97.6597 9.551 97.4947 10.373 97.1587C11.189 96.8167 11.831 96.3067 12.299 95.6287C12.761 94.9507 12.995 94.1047 13.001 93.0907ZM14 85.3123H1.04V83.9803L11.66 76.8433H1.04V75.5113H14V76.8433L3.371 83.9803H14V85.3123ZM14 65.783H1.04V64.46H7.16L1.04 58.547V56.855L7.295 62.894L14 56.36V58.088L7.52 64.46H14V65.783ZM14 54.9155H1.04V53.5925H14V54.9155ZM14 50.8943H1.04V45.8903C1.04 45.7643 1.046 45.6233 1.058 45.4673C1.064 45.3053 1.082 45.1433 1.112 44.9813C1.214 44.3033 1.451 43.7303 1.823 43.2623C2.189 42.7883 2.651 42.4313 3.209 42.1913C3.767 41.9453 4.385 41.8223 5.063 41.8223C6.041 41.8223 6.89 42.0803 7.61 42.5963C8.33 43.1123 8.783 43.8503 8.969 44.8103L9.077 45.2693V49.5713H14V50.8943ZM14 43.0463L8.726 45.6023L8.24 44.3333L14 41.5253V43.0463ZM7.817 49.5713V45.9263C7.817 45.8183 7.811 45.6923 7.799 45.5483C7.787 45.4043 7.766 45.2633 7.736 45.1253C7.64 44.6813 7.457 44.3183 7.187 44.0363C6.917 43.7483 6.596 43.5353 6.224 43.3973C5.852 43.2533 5.465 43.1813 5.063 43.1813C4.661 43.1813 4.274 43.2533 3.902 43.3973C3.524 43.5353 3.2 43.7483 2.93 44.0363C2.66 44.3183 2.477 44.6813 2.381 45.1253C2.351 45.2633 2.333 45.4043 2.327 45.5483C2.315 45.6923 2.309 45.8183 2.309 45.9263V49.5713H7.817ZM14 39.3588H1.04V38.0358H14V39.3588ZM14.27 30.1447C14.27 31.0567 14.111 31.8787 13.793 32.6107C13.475 33.3427 13.022 33.9667 12.434 34.4827C11.846 34.9927 11.138 35.3827 10.31 35.6527C9.476 35.9227 8.546 36.0577 7.52 36.0577C6.164 36.0577 4.982 35.8237 3.974 35.3557C2.96 34.8817 2.174 34.2037 1.616 33.3217C1.058 32.4397 0.778999 31.3807 0.778999 30.1447C0.778999 28.7647 1.103 27.6427 1.751 26.7787C2.393 25.9087 3.257 25.3027 4.343 24.9607L4.667 26.2927C3.875 26.5747 3.242 27.0397 2.768 27.6877C2.294 28.3297 2.057 29.1307 2.057 30.0907C2.051 31.1047 2.279 31.9477 2.741 32.6197C3.197 33.2917 3.839 33.7987 4.667 34.1407C5.489 34.4767 6.44 34.6477 7.52 34.6537C8.6 34.6597 9.551 34.4947 10.373 34.1587C11.189 33.8167 11.831 33.3067 12.299 32.6287C12.761 31.9507 12.995 31.1047 13.001 30.0907C13.001 29.1607 12.821 28.3927 12.461 27.7867C12.101 27.1807 11.585 26.7217 10.913 26.4097C10.241 26.0917 9.446 25.9117 8.528 25.8697L8.528 28.8577H7.394L7.394 24.4837C7.532 24.4657 7.679 24.4567 7.835 24.4567C7.985 24.4507 8.093 24.4477 8.159 24.4477C9.329 24.4477 10.376 24.6577 11.3 25.0777C12.218 25.4977 12.944 26.1307 13.478 26.9767C14.006 27.8167 14.27 28.8727 14.27 30.1447ZM14 22.6462H1.04V21.3232H6.881V14.1592H1.04V12.8452H14V14.1592H8.15V21.3232H14V22.6462ZM14 11.224L1.04 6.75998V5.00498L14 0.540983V1.91798L1.778 6.15698V5.63498L14 9.84698V11.224ZM10.859 9.23498H9.617V2.53898H10.859V9.23498Z" fill="white"/>
</svg>
